<svg xmlns="http://www.w3.org/2000/svg" viewBox="0 0 866 650"><rect width="866" height="650" rx="80" fill="#09090b"/>
<path d="M 397 403 L 394 406 L 391 409 L 388 412 L 386 415 L 383 418 L 380 421 L 377 424 L 374 427 L 371 430 L 368 433 L 366 436 L 363 439 L 360 442 L 357 445 L 354 448 L 351 451 L 349 454 L 346 457 L 343 460 L 340 463 L 337 466 L 335 469 L 334 472 L 337 475 L 340 478 L 343 481 L 346 484 L 349 487 L 352 489 L 355 492 L 358 495 L 361 498 L 364 501 L 367 504 L 370 507 L 373 509 L 376 512 L 379 515 L 382 518 L 385 521 L 388 524 L 391 527 L 394 529 L 397 532 L 400 535 L 403 538 L 406 541 L 409 544 L 412 546 L 415 549 L 418 552 L 421 555 L 424 558 L 427 561 L 430 563 L 433 563 L 436 561 L 439 558 L 442 555 L 445 552 L 448 550 L 451 547 L 454 544 L 457 541 L 460 538 L 463 535 L 466 533 L 469 530 L 472 527 L 475 524 L 478 521 L 481 519 L 484 516 L 487 513 L 490 510 L 493 507 L 496 504 L 499 502 L 502 499 L 505 496 L 508 493 L 511 490 L 514 487 L 517 485 L 520 482 L 523 479 L 526 476 L 529 473 L 530 470 L 529 467 L 526 464 L 523 461 L 520 458 L 517 455 L 514 452 L 512 449 L 509 446 L 506 443 L 503 440 L 500 437 L 497 434 L 495 431 L 492 428 L 489 425 L 486 422 L 483 419 L 481 416 L 478 413 L 475 410 L 472 407 L 469 404 L 466 403 L 464 406 L 462 409 L 461 412 L 459 415 L 459 418 L 460 421 L 461 424 L 462 427 L 464 430 L 465 433 L 466 436 L 467 439 L 468 442 L 469 445 L 471 448 L 472 451 L 473 454 L 474 457 L 475 460 L 472 459 L 471 456 L 469 453 L 468 450 L 466 447 L 465 444 L 463 441 L 462 438 L 460 435 L 459 432 L 458 429 L 456 426 L 453 425 L 451 428 L 449 431 L 447 434 L 447 437 L 447 440 L 447 443 L 448 446 L 448 449 L 448 452 L 448 455 L 449 458 L 449 461 L 449 464 L 449 467 L 449 470 L 450 473 L 450 476 L 450 479 L 448 478 L 447 475 L 447 472 L 446 469 L 446 466 L 445 463 L 445 460 L 444 457 L 444 454 L 443 451 L 443 448 L 442 445 L 440 443 L 437 446 L 434 449 L 431 449 L 429 446 L 426 443 L 423 444 L 423 447 L 422 450 L 422 453 L 421 456 L 421 459 L 420 462 L 420 465 L 420 468 L 419 471 L 419 474 L 418 477 L 417 480 L 416 477 L 416 474 L 416 471 L 416 468 L 416 465 L 417 462 L 417 459 L 417 456 L 417 453 L 417 450 L 417 447 L 418 444 L 418 441 L 418 438 L 418 435 L 417 432 L 415 429 L 413 426 L 411 424 L 408 427 L 407 430 L 406 433 L 404 436 L 403 439 L 402 442 L 400 445 L 399 448 L 397 451 L 396 454 L 394 457 L 393 460 L 391 459 L 392 456 L 393 453 L 394 450 L 395 447 L 396 444 L 397 441 L 398 438 L 399 435 L 400 432 L 401 429 L 403 426 L 404 423 L 405 420 L 406 417 L 405 414 L 403 411 L 402 408 L 400 405 L 398 403 Z" fill="white"/><path d="M 75 164 L 75 167 L 77 170 L 78 173 L 80 176 L 82 179 L 84 182 L 86 185 L 88 188 L 90 191 L 93 194 L 96 197 L 99 200 L 102 203 L 105 206 L 108 209 L 111 211 L 114 214 L 117 216 L 120 218 L 123 220 L 126 222 L 129 224 L 132 225 L 135 227 L 138 229 L 141 230 L 144 231 L 147 233 L 150 234 L 153 235 L 156 237 L 159 238 L 162 239 L 165 240 L 168 241 L 171 241 L 174 242 L 177 243 L 180 244 L 183 245 L 186 245 L 189 246 L 192 247 L 195 247 L 198 248 L 201 249 L 204 249 L 207 250 L 210 251 L 213 251 L 216 252 L 219 252 L 222 253 L 225 254 L 228 254 L 231 255 L 234 255 L 237 256 L 240 256 L 243 257 L 246 258 L 249 258 L 252 259 L 255 260 L 252 261 L 249 261 L 246 261 L 243 260 L 240 260 L 237 260 L 234 259 L 231 259 L 228 259 L 225 258 L 222 258 L 219 258 L 216 257 L 213 257 L 210 257 L 207 256 L 204 256 L 201 255 L 198 255 L 195 254 L 192 254 L 189 254 L 186 253 L 183 253 L 180 252 L 177 252 L 174 251 L 171 251 L 168 250 L 165 249 L 162 249 L 159 248 L 156 248 L 153 247 L 150 246 L 147 246 L 144 245 L 141 245 L 138 244 L 135 243 L 132 243 L 129 242 L 126 241 L 123 241 L 120 240 L 117 239 L 114 238 L 111 237 L 108 237 L 105 236 L 105 239 L 106 242 L 109 245 L 111 248 L 114 251 L 117 254 L 120 257 L 123 260 L 126 262 L 129 265 L 132 267 L 135 269 L 138 271 L 141 272 L 144 274 L 147 276 L 150 277 L 153 279 L 156 280 L 159 281 L 162 282 L 165 283 L 168 285 L 171 285 L 174 286 L 177 287 L 180 288 L 183 289 L 186 289 L 189 290 L 192 291 L 195 291 L 198 291 L 201 292 L 204 292 L 207 293 L 210 293 L 213 293 L 216 293 L 219 294 L 222 294 L 225 294 L 228 294 L 231 294 L 234 294 L 237 294 L 240 295 L 243 295 L 246 295 L 249 295 L 252 295 L 255 295 L 258 295 L 261 295 L 264 295 L 267 295 L 270 295 L 273 295 L 272 297 L 269 297 L 266 298 L 263 298 L 260 298 L 257 299 L 254 299 L 251 299 L 248 300 L 245 300 L 242 300 L 239 300 L 236 300 L 233 301 L 230 301 L 227 301 L 224 301 L 221 301 L 218 301 L 215 301 L 212 301 L 209 301 L 206 302 L 203 302 L 200 302 L 197 302 L 194 302 L 191 302 L 188 302 L 185 302 L 182 302 L 179 302 L 176 301 L 173 301 L 170 301 L 167 301 L 164 301 L 161 301 L 158 301 L 155 301 L 152 301 L 149 301 L 146 300 L 143 300 L 141 302 L 143 305 L 146 307 L 149 310 L 152 312 L 155 314 L 158 315 L 161 317 L 164 319 L 167 320 L 170 322 L 173 323 L 176 324 L 179 325 L 182 326 L 185 327 L 188 328 L 191 329 L 194 329 L 197 330 L 200 330 L 203 331 L 206 331 L 209 332 L 212 332 L 215 332 L 218 332 L 221 332 L 224 333 L 227 333 L 230 333 L 233 333 L 236 332 L 239 332 L 242 332 L 245 332 L 248 332 L 251 331 L 254 331 L 257 331 L 260 330 L 263 330 L 266 330 L 269 329 L 272 329 L 275 328 L 278 328 L 281 327 L 284 327 L 287 326 L 290 326 L 293 325 L 296 324 L 299 324 L 302 323 L 303 325 L 300 326 L 297 327 L 294 329 L 291 330 L 288 331 L 285 332 L 282 332 L 279 333 L 276 334 L 273 335 L 270 336 L 267 337 L 264 338 L 261 338 L 258 339 L 255 340 L 252 341 L 249 341 L 246 342 L 243 343 L 240 344 L 237 344 L 234 345 L 231 346 L 228 346 L 225 347 L 222 347 L 219 348 L 216 349 L 213 349 L 210 350 L 207 350 L 204 351 L 201 351 L 198 352 L 196 354 L 199 357 L 202 358 L 205 359 L 208 360 L 211 362 L 214 363 L 217 364 L 220 365 L 223 365 L 226 366 L 229 367 L 232 367 L 235 368 L 238 368 L 241 369 L 244 369 L 247 369 L 250 369 L 253 369 L 256 369 L 259 369 L 262 369 L 265 368 L 268 368 L 271 367 L 274 367 L 277 366 L 280 366 L 283 365 L 286 364 L 289 363 L 292 362 L 295 361 L 298 361 L 301 359 L 304 358 L 307 357 L 310 356 L 313 355 L 316 354 L 319 352 L 322 351 L 325 350 L 328 349 L 331 349 L 328 351 L 325 353 L 322 355 L 319 357 L 316 359 L 313 360 L 310 362 L 307 364 L 304 365 L 301 367 L 298 368 L 295 370 L 292 371 L 289 372 L 286 373 L 283 375 L 280 376 L 277 377 L 274 379 L 271 380 L 268 381 L 265 382 L 262 384 L 263 387 L 266 388 L 269 389 L 272 390 L 275 390 L 278 391 L 281 392 L 284 392 L 287 393 L 290 393 L 293 393 L 296 393 L 299 393 L 302 393 L 305 393 L 308 392 L 311 392 L 314 391 L 317 390 L 320 389 L 323 388 L 326 386 L 329 385 L 332 384 L 335 382 L 338 380 L 341 378 L 344 377 L 347 375 L 350 373 L 353 371 L 356 369 L 355 372 L 352 375 L 349 378 L 346 381 L 343 383 L 340 386 L 337 388 L 334 390 L 331 392 L 328 394 L 329 396 L 332 397 L 335 397 L 338 397 L 341 397 L 344 397 L 347 397 L 350 396 L 353 396 L 356 396 L 359 395 L 362 395 L 365 394 L 368 394 L 371 393 L 374 392 L 377 391 L 380 390 L 383 388 L 386 387 L 389 385 L 389 382 L 388 379 L 386 376 L 385 373 L 384 370 L 383 367 L 381 364 L 380 361 L 379 358 L 378 355 L 377 352 L 376 349 L 376 346 L 375 343 L 374 340 L 373 337 L 371 335 L 368 333 L 365 331 L 362 329 L 359 327 L 356 325 L 353 323 L 350 320 L 347 318 L 344 315 L 341 312 L 338 309 L 335 306 L 332 303 L 330 300 L 327 297 L 325 294 L 322 291 L 320 288 L 318 285 L 316 282 L 314 279 L 312 276 L 310 273 L 308 270 L 306 267 L 304 264 L 302 261 L 300 258 L 299 255 L 297 252 L 295 249 L 293 246 L 292 243 L 290 240 L 287 238 L 284 237 L 281 236 L 278 235 L 275 234 L 272 233 L 269 232 L 266 231 L 263 230 L 260 229 L 257 228 L 254 227 L 251 226 L 248 225 L 245 225 L 242 224 L 239 223 L 236 222 L 233 221 L 230 220 L 227 219 L 224 218 L 221 217 L 218 216 L 215 215 L 212 214 L 209 213 L 206 212 L 203 211 L 200 210 L 197 209 L 194 208 L 191 207 L 188 206 L 185 205 L 182 204 L 179 203 L 176 202 L 173 201 L 170 200 L 167 199 L 164 198 L 161 197 L 158 196 L 155 195 L 152 194 L 149 193 L 146 192 L 143 190 L 140 189 L 137 188 L 134 187 L 131 186 L 128 185 L 125 184 L 122 183 L 119 181 L 116 180 L 113 179 L 110 177 L 107 176 L 104 175 L 101 174 L 98 172 L 95 171 L 92 170 L 89 169 L 86 167 L 83 166 L 80 165 L 77 164 Z" fill="white"/><path d="M 788 163 L 785 165 L 782 166 L 779 167 L 776 169 L 773 170 L 770 171 L 767 173 L 764 174 L 761 175 L 758 177 L 755 178 L 752 179 L 749 180 L 746 181 L 743 183 L 740 184 L 737 185 L 734 186 L 731 187 L 728 188 L 725 189 L 722 191 L 719 192 L 716 193 L 713 194 L 710 195 L 707 196 L 704 197 L 701 198 L 698 199 L 695 200 L 692 201 L 689 202 L 686 203 L 683 204 L 680 205 L 677 206 L 674 207 L 671 208 L 668 209 L 665 210 L 662 211 L 659 212 L 656 213 L 653 214 L 650 215 L 647 216 L 644 217 L 641 218 L 638 219 L 635 220 L 632 221 L 629 222 L 626 223 L 623 224 L 620 225 L 617 226 L 614 227 L 611 228 L 608 229 L 605 230 L 602 231 L 599 232 L 596 233 L 593 234 L 590 235 L 587 236 L 584 237 L 581 237 L 578 238 L 575 240 L 573 242 L 571 245 L 570 248 L 568 251 L 567 254 L 565 257 L 563 260 L 561 263 L 560 266 L 558 269 L 556 272 L 554 275 L 552 278 L 550 281 L 548 284 L 546 287 L 543 290 L 541 293 L 538 296 L 536 299 L 533 302 L 530 305 L 527 308 L 524 311 L 521 314 L 518 317 L 515 319 L 512 321 L 509 324 L 506 326 L 503 328 L 500 330 L 497 332 L 494 333 L 491 336 L 490 339 L 489 342 L 489 345 L 488 348 L 487 351 L 486 354 L 485 357 L 485 360 L 484 363 L 483 366 L 482 369 L 480 372 L 479 375 L 478 378 L 476 381 L 476 384 L 479 386 L 482 388 L 485 389 L 488 390 L 491 391 L 494 392 L 497 393 L 500 394 L 503 394 L 506 395 L 509 395 L 512 396 L 515 396 L 518 396 L 521 397 L 524 397 L 527 397 L 530 397 L 533 397 L 536 397 L 537 394 L 534 392 L 531 389 L 528 387 L 525 384 L 522 382 L 519 379 L 516 376 L 517 374 L 520 376 L 523 378 L 526 380 L 529 382 L 532 383 L 535 385 L 538 386 L 541 387 L 544 388 L 547 389 L 550 390 L 553 391 L 556 392 L 559 392 L 562 392 L 565 393 L 568 393 L 571 393 L 574 393 L 577 393 L 580 392 L 583 392 L 586 391 L 589 391 L 592 390 L 595 389 L 598 389 L 601 388 L 604 387 L 605 384 L 602 383 L 599 382 L 596 381 L 593 379 L 590 378 L 587 377 L 584 376 L 581 375 L 578 373 L 575 372 L 572 371 L 569 369 L 566 368 L 563 366 L 560 365 L 557 363 L 554 361 L 551 360 L 548 358 L 545 356 L 542 354 L 539 352 L 536 350 L 535 348 L 538 349 L 541 350 L 544 351 L 547 353 L 550 354 L 553 355 L 556 356 L 559 358 L 562 359 L 565 360 L 568 361 L 571 362 L 574 364 L 577 365 L 580 365 L 583 366 L 586 367 L 589 368 L 592 368 L 595 369 L 598 369 L 601 370 L 604 370 L 607 370 L 610 370 L 613 370 L 616 370 L 619 370 L 622 370 L 625 369 L 628 369 L 631 368 L 634 368 L 637 367 L 640 366 L 643 366 L 646 365 L 649 364 L 652 363 L 655 361 L 658 360 L 661 359 L 664 357 L 667 355 L 665 353 L 662 352 L 659 352 L 656 351 L 653 351 L 650 350 L 647 349 L 644 349 L 641 348 L 638 347 L 635 346 L 632 346 L 629 345 L 626 344 L 623 343 L 620 342 L 617 342 L 614 341 L 611 340 L 608 339 L 605 338 L 602 338 L 599 337 L 596 336 L 593 335 L 590 334 L 587 334 L 584 333 L 581 332 L 578 331 L 575 330 L 572 329 L 569 328 L 566 327 L 563 325 L 566 324 L 569 325 L 572 325 L 575 326 L 578 327 L 581 327 L 584 328 L 587 329 L 590 329 L 593 330 L 596 330 L 599 331 L 602 331 L 605 332 L 608 332 L 611 332 L 614 333 L 617 333 L 620 333 L 623 333 L 626 333 L 629 333 L 632 333 L 635 333 L 638 333 L 641 333 L 644 333 L 647 333 L 650 332 L 653 332 L 656 332 L 659 331 L 662 331 L 665 330 L 668 329 L 671 329 L 674 328 L 677 327 L 680 326 L 683 325 L 686 324 L 689 323 L 692 321 L 695 320 L 698 319 L 701 317 L 704 315 L 707 314 L 710 312 L 713 310 L 716 307 L 719 305 L 722 302 L 720 300 L 717 300 L 714 300 L 711 301 L 708 301 L 705 301 L 702 301 L 699 301 L 696 301 L 693 301 L 690 301 L 687 301 L 684 302 L 681 302 L 678 302 L 675 302 L 672 302 L 669 302 L 666 302 L 663 302 L 660 302 L 657 301 L 654 301 L 651 301 L 648 301 L 645 301 L 642 301 L 639 301 L 636 301 L 633 300 L 630 300 L 627 300 L 624 300 L 621 300 L 618 299 L 615 299 L 612 299 L 609 299 L 606 298 L 603 298 L 600 298 L 597 297 L 594 297 L 591 296 L 588 296 L 589 294 L 592 294 L 595 294 L 598 294 L 601 294 L 604 294 L 607 294 L 610 294 L 613 294 L 616 294 L 619 294 L 622 294 L 625 294 L 628 294 L 631 294 L 634 294 L 637 294 L 640 294 L 643 293 L 646 293 L 649 293 L 652 293 L 655 293 L 658 292 L 661 292 L 664 291 L 667 291 L 670 291 L 673 290 L 676 290 L 679 289 L 682 288 L 685 288 L 688 287 L 691 286 L 694 285 L 697 284 L 700 283 L 703 282 L 706 281 L 709 280 L 712 278 L 715 277 L 718 276 L 721 274 L 724 272 L 727 271 L 730 269 L 733 267 L 736 265 L 739 262 L 742 260 L 745 257 L 748 254 L 751 251 L 754 248 L 756 245 L 758 242 L 760 239 L 760 236 L 757 236 L 754 237 L 751 238 L 748 239 L 745 240 L 742 240 L 739 241 L 736 242 L 733 243 L 730 243 L 727 244 L 724 245 L 721 246 L 718 246 L 715 247 L 712 248 L 709 249 L 706 249 L 703 250 L 700 250 L 697 251 L 694 251 L 691 252 L 688 252 L 685 253 L 682 253 L 679 254 L 676 254 L 673 255 L 670 255 L 667 256 L 664 256 L 661 256 L 658 257 L 655 257 L 652 258 L 649 258 L 646 259 L 643 259 L 640 259 L 637 260 L 634 260 L 631 260 L 628 260 L 625 261 L 622 261 L 619 261 L 616 261 L 615 259 L 618 259 L 621 258 L 624 258 L 627 257 L 630 257 L 633 256 L 636 256 L 639 255 L 642 255 L 645 254 L 648 254 L 651 253 L 654 252 L 657 252 L 660 251 L 663 250 L 666 250 L 669 249 L 672 248 L 675 247 L 678 246 L 681 246 L 684 245 L 687 244 L 690 242 L 693 241 L 696 240 L 699 239 L 702 238 L 705 237 L 708 236 L 711 235 L 714 233 L 717 232 L 720 231 L 723 229 L 726 228 L 729 226 L 732 225 L 735 223 L 738 221 L 741 220 L 744 218 L 747 216 L 750 214 L 753 211 L 756 209 L 759 207 L 762 204 L 765 201 L 768 198 L 771 195 L 774 192 L 776 189 L 778 186 L 781 183 L 783 180 L 784 177 L 786 174 L 788 171 L 790 168 L 791 165 L 790 163 Z" fill="white"/><path d="M 51 86 L 51 89 L 53 92 L 54 95 L 56 98 L 58 101 L 59 104 L 61 107 L 63 110 L 65 113 L 67 116 L 69 119 L 71 122 L 73 125 L 76 128 L 78 131 L 81 134 L 83 137 L 86 140 L 89 143 L 92 146 L 95 149 L 98 151 L 101 154 L 104 156 L 107 159 L 110 161 L 113 163 L 116 165 L 119 167 L 122 169 L 125 171 L 128 173 L 131 174 L 134 176 L 137 177 L 140 179 L 143 180 L 146 182 L 149 183 L 152 184 L 155 185 L 158 187 L 161 188 L 164 189 L 167 190 L 170 191 L 173 192 L 176 193 L 179 194 L 182 195 L 185 196 L 188 197 L 191 198 L 194 199 L 197 200 L 200 201 L 203 202 L 206 203 L 209 204 L 212 205 L 215 206 L 218 207 L 221 208 L 224 209 L 227 210 L 230 211 L 233 212 L 236 213 L 239 214 L 242 215 L 245 216 L 248 217 L 251 218 L 254 219 L 257 220 L 260 221 L 263 222 L 266 223 L 269 224 L 272 225 L 275 226 L 278 227 L 281 228 L 284 229 L 287 230 L 290 231 L 293 232 L 296 234 L 298 237 L 299 240 L 301 243 L 303 246 L 305 249 L 306 252 L 308 255 L 310 258 L 312 261 L 313 264 L 315 267 L 317 270 L 319 273 L 321 276 L 323 279 L 325 282 L 328 285 L 330 288 L 332 291 L 335 294 L 337 297 L 340 300 L 343 303 L 346 306 L 349 309 L 352 312 L 355 314 L 358 316 L 361 318 L 364 320 L 367 322 L 370 324 L 373 323 L 373 320 L 373 317 L 374 314 L 374 311 L 376 312 L 377 315 L 377 318 L 377 321 L 378 324 L 379 327 L 379 330 L 380 333 L 380 336 L 381 339 L 382 342 L 383 345 L 384 348 L 385 351 L 386 354 L 387 357 L 388 360 L 389 363 L 390 366 L 391 369 L 392 372 L 394 375 L 395 378 L 397 381 L 398 384 L 399 387 L 401 390 L 402 393 L 404 396 L 406 399 L 407 402 L 409 405 L 411 408 L 413 411 L 414 414 L 416 417 L 418 420 L 420 423 L 422 426 L 424 429 L 426 432 L 428 435 L 431 438 L 434 439 L 436 436 L 438 433 L 440 430 L 443 427 L 445 424 L 447 421 L 449 418 L 450 415 L 452 412 L 454 409 L 456 406 L 458 403 L 459 400 L 461 397 L 462 394 L 464 391 L 465 388 L 467 385 L 468 382 L 469 379 L 471 376 L 472 373 L 473 370 L 474 367 L 475 364 L 476 361 L 477 358 L 478 355 L 479 352 L 480 349 L 481 346 L 482 343 L 483 340 L 483 337 L 484 334 L 485 331 L 485 328 L 486 325 L 486 322 L 487 319 L 487 316 L 488 313 L 490 312 L 490 315 L 491 318 L 491 321 L 493 323 L 496 322 L 499 320 L 502 318 L 505 316 L 508 314 L 511 311 L 514 309 L 517 306 L 520 303 L 523 300 L 526 297 L 529 294 L 531 291 L 534 288 L 536 285 L 538 282 L 541 279 L 543 276 L 545 273 L 547 270 L 549 267 L 551 264 L 552 261 L 554 258 L 556 255 L 558 252 L 559 249 L 561 246 L 562 243 L 564 240 L 566 237 L 567 234 L 570 232 L 573 231 L 576 230 L 579 230 L 582 229 L 585 228 L 588 227 L 591 226 L 594 225 L 597 224 L 600 223 L 603 222 L 606 221 L 609 220 L 612 219 L 615 218 L 618 217 L 621 216 L 624 215 L 627 214 L 630 213 L 633 212 L 636 211 L 639 210 L 642 210 L 645 209 L 648 208 L 651 207 L 654 206 L 657 205 L 660 204 L 663 203 L 666 202 L 669 201 L 672 200 L 675 199 L 678 198 L 681 197 L 684 196 L 687 195 L 690 194 L 693 193 L 696 192 L 699 190 L 702 189 L 705 188 L 708 187 L 711 186 L 714 184 L 717 183 L 720 182 L 723 180 L 726 179 L 729 177 L 732 176 L 735 174 L 738 173 L 741 171 L 744 169 L 747 167 L 750 165 L 753 163 L 756 161 L 759 158 L 762 156 L 765 153 L 768 151 L 771 148 L 774 145 L 777 142 L 780 139 L 782 136 L 785 133 L 787 130 L 790 127 L 792 124 L 794 121 L 797 118 L 799 115 L 801 112 L 803 109 L 804 106 L 806 103 L 808 100 L 810 97 L 811 94 L 813 91 L 814 88 L 812 86 L 809 88 L 806 89 L 803 90 L 800 92 L 797 93 L 794 95 L 791 96 L 788 98 L 785 99 L 782 101 L 779 102 L 776 103 L 773 105 L 770 106 L 767 108 L 764 109 L 761 111 L 758 112 L 755 114 L 752 115 L 749 116 L 746 118 L 743 119 L 740 121 L 737 122 L 734 124 L 731 125 L 728 127 L 725 128 L 722 129 L 719 131 L 716 132 L 713 134 L 710 135 L 707 137 L 704 138 L 701 140 L 698 141 L 695 142 L 692 144 L 689 145 L 686 147 L 683 148 L 680 150 L 677 151 L 674 153 L 671 154 L 668 155 L 665 157 L 662 158 L 659 160 L 656 161 L 653 163 L 650 164 L 647 166 L 644 167 L 641 168 L 638 170 L 635 171 L 632 173 L 629 174 L 626 176 L 623 177 L 620 178 L 617 180 L 614 181 L 611 183 L 608 184 L 605 186 L 602 187 L 599 188 L 596 190 L 593 191 L 590 193 L 587 194 L 584 196 L 581 197 L 578 198 L 575 200 L 572 201 L 569 203 L 566 204 L 563 206 L 560 207 L 557 208 L 554 210 L 551 211 L 548 213 L 545 214 L 542 216 L 539 218 L 537 221 L 534 224 L 532 227 L 529 230 L 526 233 L 523 236 L 520 239 L 517 242 L 514 245 L 511 247 L 508 250 L 505 252 L 502 255 L 499 257 L 496 259 L 493 261 L 490 263 L 487 265 L 484 267 L 481 268 L 478 270 L 475 272 L 472 272 L 469 270 L 466 267 L 463 265 L 460 263 L 457 260 L 454 257 L 451 254 L 448 251 L 447 248 L 448 245 L 451 243 L 454 243 L 457 243 L 460 243 L 463 244 L 466 245 L 469 245 L 472 245 L 471 242 L 469 239 L 466 236 L 464 233 L 463 230 L 462 227 L 460 224 L 458 221 L 455 218 L 452 216 L 449 215 L 446 214 L 443 213 L 440 212 L 437 212 L 434 212 L 431 212 L 428 212 L 425 213 L 422 214 L 419 215 L 416 217 L 413 219 L 410 222 L 407 225 L 405 228 L 403 231 L 401 234 L 400 237 L 398 240 L 397 243 L 396 246 L 395 249 L 397 251 L 400 249 L 403 247 L 406 245 L 408 247 L 407 250 L 406 253 L 404 256 L 403 259 L 401 262 L 399 265 L 396 268 L 393 271 L 390 271 L 387 270 L 384 268 L 381 266 L 378 264 L 375 262 L 372 261 L 369 258 L 366 256 L 363 254 L 360 252 L 357 249 L 354 247 L 351 244 L 348 242 L 345 239 L 342 236 L 339 233 L 336 230 L 333 227 L 330 224 L 327 221 L 325 218 L 322 215 L 319 214 L 316 212 L 313 211 L 310 209 L 307 208 L 304 207 L 301 205 L 298 204 L 295 202 L 292 201 L 289 199 L 286 198 L 283 196 L 280 195 L 277 194 L 274 192 L 271 191 L 268 189 L 265 188 L 262 186 L 259 185 L 256 183 L 253 182 L 250 181 L 247 179 L 244 178 L 241 176 L 238 175 L 235 173 L 232 172 L 229 170 L 226 169 L 223 168 L 220 166 L 217 165 L 214 163 L 211 162 L 208 160 L 205 159 L 202 157 L 199 156 L 196 155 L 193 153 L 190 152 L 187 150 L 184 149 L 181 147 L 178 146 L 175 144 L 172 143 L 169 142 L 166 140 L 163 139 L 160 137 L 157 136 L 154 134 L 151 133 L 148 131 L 145 130 L 142 128 L 139 127 L 136 126 L 133 124 L 130 123 L 127 121 L 124 120 L 121 118 L 118 117 L 115 115 L 112 114 L 109 113 L 106 111 L 103 110 L 100 108 L 97 107 L 94 105 L 91 104 L 88 102 L 85 101 L 82 100 L 79 98 L 76 97 L 73 95 L 70 94 L 67 92 L 64 91 L 61 89 L 58 88 L 55 87 L 52 86 Z" fill="white"/>
</svg>
